<?xml version="1.0" encoding="UTF-8" standalone="no"?>
<!DOCTYPE svg PUBLIC "-//W3C//DTD SVG 1.1//EN" "http://www.w3.org/Graphics/SVG/1.1/DTD/svg11.dtd">
<svg version="1.1" xmlns="http://www.w3.org/2000/svg" xmlns:xlink="http://www.w3.org/1999/xlink" preserveAspectRatio="xMidYMid meet" viewBox="0 0 640 640" width="640" height="640"><defs><path d="M337.89 196.37C342.83 196.37 346.84 192.36 346.84 187.42C346.84 182.48 342.83 178.47 337.89 178.47C335.42 178.47 315.6 178.47 313.12 178.47C308.18 178.47 304.17 182.48 304.17 187.42C304.17 192.36 308.18 196.37 313.12 196.37C318.07 196.37 335.42 196.37 337.89 196.37Z" id="f4nsZDSeI"></path><path d="M391.59 127.09L391.91 127.12L392.24 127.16L392.56 127.21L392.88 127.27L393.19 127.35L393.5 127.43L393.81 127.53L394.11 127.64L394.41 127.75L394.7 127.88L394.99 128.02L395.27 128.17L395.55 128.33L395.82 128.49L396.09 128.67L396.35 128.86L396.6 129.05L396.85 129.26L397.09 129.47L397.32 129.69L397.54 129.92L397.75 130.16L397.96 130.41L398.16 130.67L398.35 130.93L398.53 131.2L398.7 131.48L398.86 131.76L399.01 132.06L399.15 132.35L399.28 132.66L399.4 132.97L399.51 133.29L399.61 133.62L412.13 178.47L426.13 178.47L426.44 178.48L426.74 178.5L427.05 178.52L427.34 178.56L427.64 178.6L427.93 178.66L428.22 178.72L428.51 178.8L428.8 178.88L429.08 178.97L429.35 179.07L429.62 179.18L429.89 179.3L430.15 179.43L430.41 179.56L430.67 179.71L430.91 179.86L431.16 180.02L431.4 180.19L431.63 180.36L431.86 180.54L432.08 180.73L432.29 180.93L432.5 181.13L432.7 181.34L432.89 181.56L433.08 181.78L433.26 182.01L433.44 182.25L433.6 182.49L433.76 182.74L433.91 183L434.05 183.26L434.19 183.52L434.31 183.79L434.43 184.07L434.54 184.35L434.64 184.64L434.73 184.93L434.81 185.22L457.52 274.82L496.64 274.82L496.93 274.82L497.22 274.84L497.52 274.86L497.8 274.89L498.09 274.94L498.37 274.99L498.65 275.05L498.93 275.12L499.21 275.19L499.48 275.28L499.74 275.37L500.01 275.48L500.27 275.59L500.52 275.71L500.78 275.83L501.02 275.97L501.27 276.11L501.5 276.26L501.74 276.42L501.97 276.58L502.19 276.75L502.41 276.93L502.62 277.11L502.83 277.3L503.03 277.5L503.22 277.71L503.41 277.92L503.59 278.13L503.76 278.36L503.93 278.58L504.09 278.82L504.25 279.06L504.39 279.31L504.53 279.56L504.66 279.81L504.79 280.07L504.9 280.34L505.01 280.61L505.11 280.89L505.2 281.17L535.84 382.17L574.72 382.17L575.02 382.18L575.31 382.19L575.6 382.22L575.88 382.25L576.17 382.29L576.45 382.34L576.73 382.4L577.01 382.47L577.28 382.55L577.55 382.63L577.82 382.73L578.08 382.83L578.34 382.94L578.6 383.06L578.85 383.18L579.1 383.32L579.34 383.46L579.58 383.61L579.81 383.76L580.04 383.93L580.26 384.1L580.48 384.27L580.69 384.46L580.9 384.65L581.1 384.85L581.29 385.05L581.48 385.26L581.66 385.47L581.84 385.7L582 385.92L582.17 386.16L582.32 386.4L582.47 386.64L582.61 386.89L582.74 387.15L582.86 387.41L582.98 387.67L583.08 387.94L583.18 388.22L583.27 388.5L615.94 495.03L631.05 495.03L631.42 495.04L631.79 495.06L632.15 495.1L632.5 495.15L632.86 495.22L633.2 495.29L633.55 495.39L633.88 495.49L634.21 495.61L634.54 495.74L634.85 495.88L635.17 496.03L635.47 496.2L635.77 496.37L636.06 496.56L636.34 496.76L636.61 496.97L636.88 497.19L637.13 497.42L637.38 497.65L637.62 497.9L637.85 498.16L638.07 498.42L638.27 498.7L638.47 498.98L638.66 499.27L638.84 499.56L639 499.87L639.16 500.18L639.3 500.5L639.43 500.82L639.54 501.15L639.65 501.49L639.74 501.83L639.82 502.18L639.88 502.53L639.93 502.89L639.97 503.25L639.99 503.61L640 503.98L639.99 504.35L639.97 504.71L639.93 505.07L639.88 505.43L639.82 505.78L639.74 506.13L639.65 506.47L639.54 506.81L639.43 507.14L639.3 507.46L639.16 507.78L639 508.09L638.84 508.4L638.66 508.69L638.47 508.98L638.27 509.26L638.07 509.54L637.85 509.8L637.62 510.06L637.38 510.31L637.13 510.54L636.88 510.77L636.61 510.99L636.34 511.2L636.06 511.4L635.77 511.59L635.47 511.76L635.17 511.93L634.85 512.08L634.54 512.22L634.21 512.35L633.88 512.47L633.55 512.57L633.2 512.67L632.86 512.74L632.5 512.81L632.15 512.86L631.79 512.9L631.42 512.92L631.05 512.93L8.95 512.93L8.58 512.92L8.21 512.9L7.85 512.86L7.5 512.81L7.14 512.74L6.8 512.67L6.45 512.57L6.12 512.47L5.79 512.35L5.46 512.22L5.15 512.08L4.83 511.93L4.53 511.76L4.23 511.59L3.94 511.4L3.66 511.2L3.39 510.99L3.12 510.77L2.87 510.54L2.62 510.31L2.38 510.06L2.15 509.8L1.93 509.54L1.73 509.26L1.53 508.98L1.34 508.69L1.16 508.4L1 508.09L0.84 507.78L0.7 507.46L0.57 507.14L0.46 506.81L0.35 506.47L0.26 506.13L0.18 505.78L0.12 505.43L0.07 505.07L0.03 504.71L0.01 504.35L0 503.98L0.01 503.61L0.03 503.25L0.07 502.89L0.12 502.53L0.18 502.18L0.26 501.83L0.35 501.49L0.46 501.15L0.57 500.82L0.7 500.5L0.84 500.18L1 499.87L1.16 499.56L1.34 499.27L1.53 498.98L1.73 498.7L1.93 498.42L2.15 498.16L2.38 497.9L2.62 497.65L2.87 497.42L3.12 497.19L3.39 496.97L3.66 496.76L3.94 496.56L4.23 496.37L4.53 496.2L4.83 496.03L5.15 495.88L5.46 495.74L5.79 495.61L6.12 495.49L6.45 495.39L6.8 495.29L7.14 495.22L7.5 495.15L7.85 495.1L8.21 495.06L8.58 495.04L8.95 495.03L24.64 495.03L57.31 388.5L57.4 388.22L57.5 387.94L57.61 387.67L57.72 387.41L57.85 387.15L57.98 386.89L58.12 386.64L58.26 386.4L58.42 386.16L58.58 385.92L58.75 385.7L58.92 385.47L59.1 385.26L59.29 385.05L59.48 384.85L59.68 384.65L59.89 384.46L60.1 384.27L60.32 384.1L60.54 383.93L60.77 383.76L61 383.61L61.24 383.46L61.48 383.32L61.73 383.18L61.98 383.06L62.24 382.94L62.5 382.83L62.76 382.73L63.03 382.63L63.3 382.55L63.57 382.47L63.85 382.4L64.13 382.34L64.41 382.29L64.7 382.25L64.98 382.22L65.27 382.19L65.57 382.18L65.86 382.17L122.33 382.17L152.97 281.17L153.06 280.89L153.16 280.61L153.26 280.34L153.38 280.07L153.5 279.81L153.63 279.56L153.77 279.31L153.92 279.06L154.07 278.82L154.23 278.59L154.4 278.36L154.58 278.13L154.76 277.92L154.95 277.71L155.14 277.5L155.34 277.3L155.55 277.11L155.76 276.93L155.98 276.75L156.2 276.58L156.43 276.42L156.66 276.26L156.9 276.11L157.14 275.97L157.39 275.83L157.64 275.71L157.9 275.59L158.16 275.48L158.42 275.38L158.69 275.28L158.96 275.19L159.23 275.12L159.51 275.05L159.79 274.99L160.08 274.94L160.36 274.89L160.65 274.86L160.94 274.84L161.23 274.82L161.53 274.82L183.06 274.82L205.78 185.22L205.86 184.93L205.95 184.64L206.04 184.35L206.15 184.07L206.27 183.79L206.39 183.52L206.53 183.26L206.67 183L206.82 182.74L206.98 182.49L207.15 182.25L207.32 182.01L207.5 181.78L207.69 181.56L207.88 181.34L208.08 181.13L208.29 180.93L208.51 180.73L208.73 180.54L208.95 180.36L209.19 180.19L209.42 180.02L209.67 179.86L209.92 179.71L210.17 179.56L210.43 179.43L210.69 179.3L210.96 179.18L211.23 179.07L211.51 178.97L211.79 178.88L212.07 178.8L212.36 178.72L212.65 178.66L212.94 178.6L213.24 178.56L213.54 178.52L213.84 178.5L214.14 178.48L214.45 178.47L253.08 178.47L271.23 149.13L271.34 148.97L271.45 148.81L271.56 148.65L271.67 148.49L271.79 148.34L271.91 148.19L272.03 148.04L272.16 147.89L272.29 147.75L272.42 147.61L272.55 147.48L272.69 147.34L272.83 147.21L272.98 147.09L273.12 146.96L273.27 146.84L273.42 146.72L273.57 146.61L273.73 146.5L273.89 146.39L274.05 146.29L274.21 146.19L274.37 146.09L274.54 146L274.71 145.91L274.88 145.82L275.05 145.74L275.22 145.66L275.4 145.58L275.58 145.51L275.76 145.44L275.94 145.38L276.12 145.32L276.3 145.26L276.49 145.21L276.68 145.16L276.87 145.12L277.05 145.07L277.25 145.04L277.44 145L389.59 127.19L389.93 127.14L390.26 127.11L390.59 127.08L390.93 127.07L391.26 127.08L391.59 127.09ZM431.42 495.03L458.9 495.03L457.45 488.15L432.88 488.15L431.42 495.03ZM275.24 411.17L275.17 411.32L275.1 411.47L275.03 411.62L274.95 411.77L274.87 411.91L274.79 412.06L274.71 412.2L274.62 412.34L274.54 412.48L274.44 412.61L274.35 412.75L274.26 412.88L274.16 413.01L274.06 413.14L273.96 413.27L273.85 413.39L273.75 413.51L273.64 413.64L273.52 413.75L273.41 413.87L273.3 413.99L273.18 414.1L273.06 414.21L272.94 414.32L272.81 414.43L272.69 414.53L272.56 414.63L272.43 414.73L272.3 414.83L272.17 414.92L272.03 415.02L271.9 415.11L271.76 415.19L271.62 415.28L271.47 415.36L271.33 415.44L271.19 415.52L271.04 415.6L270.89 415.67L270.74 415.74L235.56 431.73L231.09 455.12L251.01 455.12L251.32 455.13L251.64 455.14L251.95 455.17L252.26 455.21L252.56 455.26L252.86 455.31L253.16 455.38L253.46 455.46L253.75 455.55L254.04 455.65L254.32 455.75L254.6 455.87L254.87 456L255.14 456.13L255.4 456.27L255.66 456.43L255.92 456.59L256.16 456.76L256.41 456.93L256.64 457.12L256.87 457.31L257.09 457.51L257.31 457.72L257.52 457.93L257.72 458.15L257.92 458.38L258.1 458.62L258.28 458.86L258.45 459.11L258.62 459.36L258.77 459.62L258.92 459.89L259.06 460.16L259.19 460.44L259.31 460.72L259.42 461.01L259.52 461.31L259.61 461.6L259.69 461.91L259.76 462.22L266.69 495.03L413.14 495.03L416.87 477.36L416.94 477.05L417.02 476.74L417.11 476.45L417.21 476.15L417.32 475.86L417.44 475.58L417.57 475.3L417.71 475.03L417.86 474.76L418.01 474.5L418.18 474.25L418.35 474L418.53 473.76L418.71 473.52L418.91 473.29L419.11 473.07L419.32 472.86L419.54 472.65L419.76 472.45L419.99 472.26L420.23 472.07L420.47 471.9L420.71 471.73L420.97 471.57L421.23 471.41L421.49 471.27L421.76 471.14L422.03 471.01L422.31 470.89L422.6 470.79L422.88 470.69L423.17 470.6L423.47 470.52L423.77 470.45L424.07 470.39L424.37 470.35L424.68 470.31L424.99 470.28L425.31 470.26L425.62 470.26L433.82 470.26L426.39 431.38L392.8 413.42L392.69 413.36L392.58 413.29L392.47 413.23L392.36 413.16L392.25 413.09L392.14 413.03L392.03 412.95L391.92 412.88L391.82 412.81L391.72 412.73L391.61 412.66L391.51 412.58L391.41 412.5L391.31 412.42L391.21 412.33L391.12 412.25L391.02 412.17L390.93 412.08L390.83 411.99L390.74 411.9L390.65 411.81L390.56 411.72L390.47 411.63L390.39 411.53L390.3 411.44L390.22 411.34L390.14 411.24L390.05 411.14L389.98 411.04L389.9 410.94L389.82 410.84L389.74 410.73L389.67 410.63L389.6 410.52L389.53 410.42L389.46 410.31L389.39 410.2L389.32 410.09L389.26 409.98L389.19 409.86L363.8 364.01L295.82 364.01L275.24 411.17ZM190.65 495.03L248.41 495.03L243.75 473.01L195.3 473.01L190.65 495.03ZM274.12 178.47L286.97 178.47L287.34 178.48L287.7 178.5L288.06 178.54L288.42 178.59L288.77 178.66L289.12 178.73L289.46 178.83L289.8 178.93L290.13 179.05L290.45 179.18L290.77 179.32L291.08 179.47L291.38 179.64L291.68 179.81L291.97 180L292.25 180.2L292.52 180.41L292.79 180.63L293.05 180.86L293.29 181.09L293.53 181.34L293.76 181.6L293.98 181.86L294.19 182.14L294.39 182.42L294.57 182.71L294.75 183.01L294.92 183.31L295.07 183.62L295.21 183.94L295.34 184.26L295.46 184.59L295.56 184.93L295.65 185.27L295.73 185.62L295.8 185.97L295.85 186.33L295.88 186.69L295.91 187.05L295.91 187.42L295.91 187.79L295.88 188.15L295.85 188.52L295.8 188.87L295.73 189.22L295.65 189.57L295.56 189.91L295.46 190.25L295.34 190.58L295.21 190.9L295.07 191.22L294.92 191.53L294.75 191.84L294.57 192.13L294.39 192.42L294.19 192.7L293.98 192.98L293.76 193.24L293.53 193.5L293.29 193.75L293.05 193.99L292.79 194.21L292.52 194.43L292.25 194.64L291.97 194.84L291.68 195.03L291.38 195.2L291.08 195.37L290.77 195.52L290.45 195.66L290.13 195.79L289.8 195.91L289.46 196.02L289.12 196.11L288.77 196.19L288.42 196.25L288.06 196.3L287.7 196.34L287.34 196.36L286.97 196.37L221.41 196.37L201.52 274.82L227.78 274.82L228.15 274.83L228.52 274.85L228.88 274.89L229.23 274.94L229.59 275L229.93 275.08L230.28 275.17L230.61 275.27L230.94 275.39L231.27 275.52L231.58 275.66L231.89 275.82L232.2 275.98L232.5 276.16L232.79 276.35L233.07 276.54L233.34 276.75L233.61 276.97L233.86 277.2L234.11 277.44L234.35 277.69L234.58 277.94L234.8 278.21L235 278.48L235.2 278.76L235.39 279.05L235.57 279.35L235.73 279.65L235.88 279.96L236.03 280.28L236.16 280.61L236.27 280.94L236.38 281.27L236.47 281.62L236.55 281.96L236.61 282.31L236.66 282.67L236.7 283.03L236.72 283.4L236.73 283.76L236.72 284.13L236.7 284.5L236.66 284.86L236.61 285.22L236.55 285.57L236.47 285.91L236.38 286.26L236.27 286.59L236.16 286.92L236.03 287.25L235.88 287.57L235.73 287.88L235.57 288.18L235.39 288.48L235.2 288.77L235 289.05L234.8 289.32L234.58 289.59L234.35 289.84L234.11 290.09L233.86 290.33L233.61 290.56L233.34 290.78L233.07 290.99L232.79 291.18L232.5 291.37L232.2 291.55L231.89 291.71L231.58 291.87L231.27 292.01L230.94 292.14L230.61 292.26L230.28 292.36L229.93 292.45L229.59 292.53L229.23 292.59L228.88 292.64L228.52 292.68L228.15 292.7L227.78 292.71L168.16 292.71L125.48 433.4L125.39 433.68L125.29 433.97L125.18 434.24L125.06 434.51L124.94 434.78L124.8 435.04L124.66 435.29L124.51 435.54L124.35 435.78L124.19 436.02L124.02 436.25L123.84 436.47L123.66 436.69L123.47 436.9L123.27 437.1L123.07 437.3L122.86 437.49L122.65 437.68L122.43 437.85L122.2 438.02L121.97 438.18L121.74 438.34L121.5 438.49L121.26 438.63L121.01 438.76L120.76 438.88L120.5 439L120.24 439.11L119.98 439.21L119.72 439.3L119.45 439.38L119.18 439.46L118.9 439.53L118.62 439.58L118.35 439.63L118.06 439.68L117.78 439.71L117.5 439.73L117.21 439.74L116.92 439.75L116.86 439.75L116.8 439.75L116.73 439.75L116.67 439.75L116.6 439.74L116.54 439.74L116.47 439.74L116.41 439.73L116.34 439.73L116.28 439.73L116.21 439.72L116.15 439.71L116.08 439.71L116.02 439.7L115.95 439.7L115.89 439.69L115.82 439.68L115.76 439.67L115.69 439.66L115.63 439.65L115.56 439.64L115.5 439.63L115.43 439.62L115.37 439.61L115.3 439.6L115.24 439.59L115.17 439.57L115.11 439.56L115.04 439.55L114.98 439.53L114.91 439.52L114.84 439.5L114.78 439.49L114.71 439.47L114.65 439.45L114.58 439.44L114.52 439.42L114.45 439.4L114.39 439.38L114.32 439.36L113.97 439.25L113.63 439.12L113.3 438.98L112.97 438.83L112.65 438.66L112.34 438.49L112.04 438.3L111.75 438.1L111.47 437.9L111.2 437.68L110.93 437.45L110.68 437.21L110.44 436.97L110.2 436.71L109.98 436.45L109.77 436.18L109.57 435.9L109.38 435.61L109.2 435.32L109.03 435.02L108.88 434.71L108.73 434.4L108.6 434.08L108.48 433.76L108.37 433.43L108.28 433.1L108.19 432.77L108.12 432.43L108.07 432.08L108.02 431.74L107.99 431.39L107.98 431.04L107.97 430.69L107.99 430.34L108.01 429.98L108.05 429.63L108.11 429.27L108.18 428.91L108.26 428.56L108.36 428.2L116.9 400.07L72.48 400.07L43.36 495.03L172.36 495.03L179.29 462.21L179.36 461.91L179.44 461.6L179.53 461.3L179.63 461.01L179.74 460.72L179.86 460.44L179.99 460.16L180.13 459.89L180.28 459.62L180.43 459.36L180.6 459.11L180.77 458.86L180.95 458.61L181.13 458.38L181.33 458.15L181.53 457.93L181.74 457.71L181.96 457.51L182.18 457.31L182.41 457.11L182.65 456.93L182.89 456.75L183.13 456.58L183.39 456.42L183.65 456.27L183.91 456.13L184.18 455.99L184.45 455.87L184.73 455.75L185.02 455.64L185.3 455.55L185.59 455.46L185.89 455.38L186.19 455.31L186.49 455.25L186.8 455.2L187.1 455.17L187.41 455.14L187.73 455.12L188.04 455.12L212.87 455.12L218.86 423.82L218.9 423.6L218.95 423.39L219 423.18L219.06 422.98L219.13 422.77L219.19 422.57L219.27 422.37L219.34 422.17L219.43 421.97L219.51 421.77L219.6 421.58L219.7 421.39L219.8 421.2L219.9 421.02L220.01 420.84L220.12 420.66L220.24 420.48L220.36 420.31L220.49 420.14L220.61 419.97L220.75 419.8L220.88 419.64L221.02 419.48L221.17 419.33L221.32 419.18L221.47 419.03L221.62 418.88L221.78 418.74L221.95 418.6L222.11 418.47L222.28 418.34L222.45 418.21L222.63 418.09L222.81 417.97L222.99 417.86L223.17 417.75L223.36 417.64L223.55 417.54L223.75 417.45L223.94 417.35L260.21 400.87L281.77 351.48L281.88 351.24L281.99 351L282.12 350.76L282.25 350.54L282.38 350.31L282.53 350.09L282.67 349.88L282.83 349.67L282.99 349.46L283.15 349.26L283.32 349.07L283.5 348.88L283.68 348.7L283.86 348.52L284.05 348.35L284.25 348.18L284.44 348.02L284.65 347.86L284.86 347.71L285.07 347.57L285.28 347.43L285.5 347.3L285.73 347.18L285.96 347.06L286.19 346.95L286.42 346.84L286.66 346.75L286.9 346.65L287.14 346.57L287.39 346.49L287.64 346.42L287.89 346.36L288.14 346.3L288.4 346.25L288.65 346.21L288.91 346.17L289.17 346.15L289.44 346.13L289.7 346.11L289.97 346.11L369.07 346.11L369.31 346.11L369.55 346.12L369.79 346.14L370.03 346.16L370.27 346.19L370.51 346.23L370.74 346.27L370.98 346.32L371.21 346.37L371.44 346.43L371.67 346.5L371.89 346.57L372.12 346.65L372.34 346.73L372.56 346.82L372.77 346.91L372.99 347.02L373.2 347.12L373.4 347.23L373.61 347.35L373.81 347.47L374.01 347.6L374.2 347.73L374.39 347.87L374.58 348.01L374.77 348.16L374.95 348.31L375.12 348.47L375.29 348.63L375.46 348.8L375.63 348.97L375.79 349.15L375.94 349.33L376.09 349.52L376.24 349.71L376.38 349.9L376.51 350.1L376.65 350.3L376.77 350.51L376.89 350.72L403.57 398.88L438.59 417.61L438.77 417.71L438.94 417.81L439.12 417.91L439.28 418.02L439.45 418.13L439.61 418.25L439.78 418.37L439.93 418.49L440.09 418.61L440.24 418.74L440.39 418.88L440.53 419.01L440.68 419.15L440.81 419.29L440.95 419.43L441.08 419.58L441.21 419.73L441.34 419.88L441.46 420.04L441.58 420.2L441.69 420.36L441.81 420.52L441.91 420.69L442.02 420.85L442.12 421.02L442.22 421.2L442.31 421.37L442.4 421.55L442.49 421.73L442.57 421.91L442.65 422.09L442.72 422.28L442.79 422.46L442.85 422.65L442.92 422.84L442.97 423.03L443.03 423.23L443.08 423.42L443.12 423.62L443.16 423.82L452.04 470.26L464.7 470.26L465.02 470.26L465.33 470.28L465.65 470.31L465.95 470.35L466.26 470.39L466.56 470.45L466.86 470.52L467.15 470.6L467.45 470.69L467.73 470.79L468.02 470.89L468.29 471.01L468.57 471.14L468.84 471.27L469.1 471.41L469.36 471.57L469.61 471.73L469.86 471.89L470.1 472.07L470.34 472.26L470.57 472.45L470.79 472.65L471.01 472.86L471.22 473.07L471.42 473.29L471.61 473.52L471.8 473.76L471.98 474L472.15 474.25L472.32 474.5L472.47 474.76L472.62 475.03L472.76 475.3L472.88 475.58L473 475.86L473.11 476.15L473.22 476.44L473.31 476.74L473.39 477.05L473.46 477.35L477.19 495.03L597.22 495.03L568.11 400.06L470.02 400.06L469.65 400.06L469.29 400.04L468.93 400L468.57 399.95L468.22 399.88L467.87 399.8L467.53 399.71L467.19 399.61L466.86 399.49L466.54 399.36L466.22 399.22L465.91 399.07L465.61 398.9L465.31 398.72L465.02 398.54L464.74 398.34L464.46 398.13L464.2 397.91L463.94 397.68L463.7 397.44L463.46 397.2L463.23 396.94L463.01 396.68L462.8 396.4L462.6 396.12L462.42 395.83L462.24 395.53L462.07 395.23L461.92 394.92L461.78 394.6L461.65 394.28L461.53 393.95L461.43 393.61L461.34 393.27L461.26 392.92L461.19 392.57L461.14 392.21L461.1 391.85L461.08 391.49L461.08 391.12L461.08 390.75L461.1 390.38L461.14 390.02L461.19 389.67L461.26 389.32L461.34 388.97L461.43 388.63L461.53 388.29L461.65 387.96L461.78 387.64L461.92 387.32L462.07 387.01L462.24 386.7L462.42 386.41L462.6 386.12L462.8 385.83L463.01 385.56L463.23 385.3L463.46 385.04L463.7 384.79L463.94 384.55L464.2 384.33L464.46 384.11L464.74 383.9L465.02 383.7L465.31 383.51L465.61 383.34L465.91 383.17L466.22 383.02L466.54 382.88L466.86 382.75L467.19 382.63L467.53 382.52L467.87 382.43L468.22 382.35L468.57 382.29L468.93 382.24L469.29 382.2L469.65 382.18L470.02 382.17L517.14 382.17L490 292.71L462.06 292.71L469.48 321.97L469.56 322.33L469.63 322.69L469.68 323.05L469.72 323.41L469.74 323.77L469.75 324.12L469.75 324.48L469.73 324.83L469.69 325.18L469.65 325.52L469.59 325.87L469.52 326.2L469.43 326.54L469.33 326.87L469.22 327.2L469.1 327.52L468.96 327.84L468.82 328.15L468.66 328.45L468.49 328.75L468.31 329.04L468.12 329.33L467.91 329.6L467.7 329.87L467.47 330.13L467.24 330.39L466.99 330.63L466.74 330.87L466.48 331.09L466.2 331.31L465.92 331.51L465.63 331.71L465.33 331.89L465.02 332.06L464.7 332.22L464.38 332.37L464.05 332.51L463.7 332.64L463.36 332.75L463 332.84L462.95 332.86L462.89 332.87L462.83 332.88L462.78 332.9L462.72 332.91L462.67 332.92L462.61 332.93L462.56 332.94L462.5 332.96L462.45 332.97L462.39 332.98L462.34 332.99L462.28 333L462.23 333.01L462.17 333.01L462.12 333.02L462.06 333.03L462.01 333.04L461.95 333.05L461.89 333.05L461.84 333.06L461.78 333.07L461.73 333.07L461.67 333.08L461.62 333.08L461.56 333.09L461.51 333.09L461.45 333.1L461.4 333.1L461.34 333.1L461.29 333.11L461.23 333.11L461.18 333.11L461.12 333.11L461.07 333.12L461.01 333.12L460.96 333.12L460.91 333.12L460.85 333.12L460.8 333.12L460.5 333.12L460.2 333.1L459.9 333.08L459.61 333.04L459.32 333L459.03 332.94L458.74 332.88L458.46 332.81L458.18 332.73L457.9 332.64L457.63 332.54L457.36 332.43L457.09 332.31L456.83 332.19L456.57 332.05L456.32 331.91L456.07 331.76L455.82 331.6L455.58 331.44L455.35 331.27L455.12 331.08L454.9 330.9L454.68 330.7L454.47 330.5L454.27 330.29L454.07 330.07L453.88 329.85L453.7 329.62L453.52 329.38L453.36 329.14L453.2 328.89L453.04 328.63L452.9 328.37L452.76 328.1L452.63 327.82L452.51 327.54L452.4 327.26L452.3 326.97L452.21 326.67L452.13 326.37L419.17 196.37L386.06 196.37L385.7 196.36L385.33 196.34L384.97 196.3L384.61 196.25L384.26 196.19L383.91 196.11L383.57 196.02L383.24 195.91L382.91 195.79L382.58 195.66L382.26 195.52L381.95 195.37L381.65 195.2L381.35 195.03L381.06 194.84L380.78 194.64L380.51 194.43L380.24 194.21L379.99 193.99L379.74 193.75L379.5 193.5L379.27 193.24L379.05 192.98L378.84 192.7L378.65 192.42L378.46 192.13L378.28 191.84L378.12 191.53L377.96 191.22L377.82 190.9L377.69 190.58L377.57 190.25L377.47 189.91L377.38 189.57L377.3 189.22L377.24 188.87L377.18 188.52L377.15 188.15L377.13 187.79L377.12 187.42L377.13 187.05L377.15 186.69L377.18 186.33L377.24 185.97L377.3 185.62L377.38 185.27L377.47 184.93L377.57 184.59L377.69 184.26L377.82 183.94L377.96 183.62L378.12 183.31L378.28 183.01L378.46 182.71L378.65 182.42L378.84 182.14L379.05 181.86L379.27 181.6L379.5 181.34L379.74 181.09L379.99 180.86L380.24 180.63L380.51 180.41L380.78 180.2L381.06 180L381.35 179.81L381.65 179.64L381.95 179.47L382.26 179.32L382.58 179.18L382.91 179.05L383.24 178.93L383.57 178.83L383.91 178.73L384.26 178.66L384.61 178.59L384.97 178.54L385.33 178.5L385.7 178.48L386.06 178.47L393.55 178.47L384.52 146.11L284.29 162.03L274.12 178.47Z" id="a5urrz2MHO"></path><path d="M365.56 292.71C370.5 292.71 374.5 288.71 374.5 283.76C374.5 278.82 370.5 274.82 365.56 274.82C360.05 274.82 316.01 274.82 310.5 274.82C305.56 274.82 301.56 278.82 301.56 283.76C301.56 288.71 305.56 292.71 310.5 292.71C321.51 292.71 360.05 292.71 365.56 292.71Z" id="f76QCKmtC"></path><path d="M406.71 292.71C411.65 292.71 415.66 288.71 415.66 283.76C415.66 278.82 411.65 274.82 406.71 274.82C405.47 274.82 395.56 274.82 394.32 274.82C389.38 274.82 385.38 278.82 385.38 283.76C385.38 288.71 389.38 292.71 394.32 292.71C396.8 292.71 405.47 292.71 406.71 292.71Z" id="b6HDt5wr0"></path></defs><g><g><g><use xlink:href="#f4nsZDSeI" opacity="1" fill="#8000ff" fill-opacity="1"></use><g><use xlink:href="#f4nsZDSeI" opacity="1" fill-opacity="0" stroke="#8000ff" stroke-width="1" stroke-opacity="0.76"></use></g></g><g><use xlink:href="#a5urrz2MHO" opacity="1" fill="#8000ff" fill-opacity="1"></use><g><use xlink:href="#a5urrz2MHO" opacity="1" fill-opacity="0" stroke="#8000ff" stroke-width="1" stroke-opacity="0.76"></use></g></g><g><use xlink:href="#f76QCKmtC" opacity="1" fill="#8000ff" fill-opacity="1"></use><g><use xlink:href="#f76QCKmtC" opacity="1" fill-opacity="0" stroke="#8000ff" stroke-width="1" stroke-opacity="0.76"></use></g></g><g><use xlink:href="#b6HDt5wr0" opacity="1" fill="#8000ff" fill-opacity="1"></use><g><use xlink:href="#b6HDt5wr0" opacity="1" fill-opacity="0" stroke="#8000ff" stroke-width="1" stroke-opacity="0.76"></use></g></g></g></g></svg>