<?xml version="1.0" encoding="UTF-8" standalone="no"?>
<!DOCTYPE svg PUBLIC "-//W3C//DTD SVG 1.1//EN" "http://www.w3.org/Graphics/SVG/1.1/DTD/svg11.dtd">
<svg version="1.1" xmlns="http://www.w3.org/2000/svg" xmlns:xlink="http://www.w3.org/1999/xlink" preserveAspectRatio="xMidYMid meet" viewBox="0 0 640 640" width="640" height="640"><defs><path d="M359.24 0.06L360.91 0.14L362.56 0.24L364.21 0.38L365.83 0.54L367.45 0.74L369.06 0.96L370.65 1.22L372.23 1.51L373.8 1.82L375.35 2.17L376.89 2.55L378.42 2.95L379.94 3.39L381.45 3.86L382.94 4.35L384.42 4.88L385.89 5.44L387.35 6.02L388.79 6.64L390.23 7.29L391.65 7.97L393.05 8.67L394.45 9.41L395.83 10.18L397.2 10.98L398.56 11.81L399.91 12.66L401.24 13.55L402.56 14.47L403.87 15.42L405.17 16.4L406.45 17.41L407.72 18.45L408.98 19.52L410.23 20.62L411.47 21.74L412.69 22.9L413.9 24.09L415.09 25.3L416.25 26.53L417.38 27.76L418.48 29.01L419.55 30.27L420.59 31.54L421.59 32.83L422.57 34.12L423.52 35.43L424.44 36.76L425.33 38.09L426.19 39.44L427.02 40.79L427.81 42.17L428.58 43.55L429.32 44.94L430.03 46.35L430.7 47.77L431.35 49.2L431.97 50.65L432.56 52.11L433.11 53.58L433.64 55.06L434.14 56.55L434.6 58.06L435.04 59.58L435.45 61.11L435.82 62.65L436.17 64.2L436.49 65.77L436.77 67.35L437.03 68.94L437.26 70.55L437.45 72.17L437.62 73.79L437.75 75.44L437.86 77.09L437.93 78.76L437.98 80.43L437.99 82.12L437.99 355.87L437.98 357.56L437.93 359.24L437.86 360.91L437.75 362.56L437.62 364.2L437.45 365.83L437.26 367.45L437.03 369.05L436.77 370.64L436.49 372.22L436.17 373.79L435.83 375.35L435.45 376.89L435.04 378.42L434.61 379.94L434.14 381.45L433.64 382.94L433.11 384.42L432.56 385.89L431.97 387.35L431.35 388.79L430.7 390.22L430.03 391.64L429.32 393.05L428.58 394.45L427.81 395.83L427.02 397.2L426.19 398.56L425.33 399.91L424.44 401.24L423.52 402.56L422.57 403.87L421.59 405.17L420.58 406.45L419.55 407.73L418.48 408.99L417.38 410.23L416.25 411.47L415.09 412.69L413.9 413.9L412.69 415.09L411.46 416.25L410.23 417.38L408.98 418.48L407.72 419.55L406.45 420.59L405.17 421.6L403.87 422.58L402.56 423.53L401.24 424.45L399.9 425.34L398.56 426.19L397.2 427.02L395.83 427.82L394.45 428.59L393.05 429.33L391.64 430.03L390.22 430.71L388.79 431.36L387.35 431.98L385.89 432.56L384.42 433.12L382.94 433.65L381.45 434.15L379.94 434.61L378.42 435.05L376.89 435.46L375.35 435.83L373.79 436.18L372.22 436.49L370.64 436.78L369.05 437.04L367.45 437.26L365.83 437.46L364.2 437.62L362.56 437.76L360.91 437.87L359.24 437.94L357.56 437.99L355.87 438L82.12 438L80.43 437.99L78.76 437.94L77.09 437.87L75.44 437.76L73.8 437.62L72.17 437.46L70.55 437.26L68.95 437.04L67.35 436.78L65.77 436.49L64.21 436.18L62.65 435.83L61.11 435.46L59.58 435.05L58.06 434.61L56.55 434.15L55.06 433.65L53.58 433.12L52.11 432.56L50.65 431.98L49.21 431.36L47.77 430.71L46.35 430.03L44.95 429.33L43.55 428.59L42.17 427.82L40.8 427.02L39.44 426.19L38.09 425.34L36.76 424.45L35.44 423.53L34.13 422.58L32.83 421.6L31.54 420.59L30.27 419.55L29.01 418.48L27.76 417.38L26.53 416.25L25.3 415.09L24.09 413.9L22.9 412.69L21.74 411.47L20.62 410.23L19.52 408.99L18.45 407.73L17.41 406.45L16.4 405.17L15.42 403.87L14.47 402.56L13.55 401.24L12.66 399.91L11.81 398.56L10.98 397.2L10.18 395.83L9.41 394.45L8.67 393.05L7.97 391.64L7.29 390.22L6.64 388.79L6.02 387.35L5.44 385.89L4.88 384.42L4.35 382.94L3.86 381.45L3.39 379.94L2.95 378.42L2.55 376.89L2.17 375.35L1.82 373.79L1.51 372.22L1.22 370.64L0.96 369.05L0.74 367.45L0.54 365.83L0.38 364.2L0.24 362.56L0.14 360.91L0.06 359.24L0.02 357.56L0 355.87L0 82.12L0.02 80.43L0.06 78.76L0.14 77.09L0.24 75.44L0.38 73.8L0.54 72.17L0.74 70.55L0.96 68.94L1.22 67.35L1.51 65.77L1.82 64.21L2.17 62.65L2.55 61.11L2.95 59.58L3.39 58.06L3.86 56.55L4.35 55.06L4.88 53.58L5.44 52.11L6.02 50.65L6.64 49.21L7.29 47.77L7.97 46.35L8.67 44.95L9.41 43.55L10.18 42.17L10.98 40.8L11.81 39.44L12.66 38.09L13.55 36.76L14.47 35.44L15.42 34.13L16.4 32.83L17.41 31.54L18.45 30.27L19.52 29.01L20.62 27.76L21.74 26.53L22.9 25.3L24.09 24.09L25.3 22.9L26.53 21.74L27.76 20.62L29.01 19.52L30.27 18.45L31.54 17.41L32.83 16.4L34.13 15.42L35.44 14.47L36.76 13.55L38.09 12.66L39.44 11.81L40.8 10.98L42.17 10.18L43.55 9.41L44.95 8.67L46.35 7.97L47.77 7.29L49.21 6.64L50.65 6.02L52.11 5.44L53.58 4.88L55.06 4.35L56.55 3.86L58.06 3.39L59.58 2.95L61.11 2.55L62.65 2.17L64.21 1.82L65.77 1.51L67.35 1.22L68.95 0.96L70.55 0.74L72.17 0.54L73.8 0.38L75.44 0.24L77.09 0.14L78.76 0.06L80.43 0.02L82.12 0L355.88 0L357.57 0.02L359.24 0.06ZM81.94 73L81.76 73L81.57 73.01L81.39 73.02L81.21 73.04L81.04 73.06L80.86 73.08L80.68 73.11L80.51 73.13L80.33 73.17L80.16 73.2L79.99 73.24L79.82 73.28L79.65 73.33L79.49 73.38L79.32 73.43L79.15 73.49L78.99 73.55L78.83 73.61L78.67 73.67L78.51 73.74L78.35 73.82L78.19 73.89L78.04 73.97L77.88 74.06L77.73 74.14L77.58 74.23L77.42 74.33L77.28 74.42L77.13 74.52L76.98 74.62L76.83 74.73L76.69 74.84L76.54 74.95L76.4 75.07L76.26 75.19L76.12 75.31L75.98 75.44L75.85 75.57L75.71 75.71L75.58 75.84L75.45 75.98L75.32 76.12L75.19 76.26L75.07 76.4L74.96 76.54L74.84 76.68L74.73 76.83L74.63 76.97L74.52 77.12L74.42 77.27L74.33 77.42L74.23 77.57L74.14 77.72L74.06 77.88L73.98 78.03L73.9 78.19L73.82 78.35L73.75 78.5L73.68 78.66L73.61 78.82L73.55 78.99L73.49 79.15L73.43 79.31L73.38 79.48L73.33 79.65L73.29 79.82L73.24 79.99L73.21 80.16L73.17 80.33L73.14 80.5L73.11 80.68L73.08 80.85L73.06 81.03L73.04 81.21L73.03 81.39L73.02 81.57L73.01 81.75L73 81.94L73 82.12L73 355.87L73 356.06L73.01 356.24L73.02 356.42L73.03 356.6L73.04 356.78L73.06 356.96L73.08 357.14L73.11 357.31L73.14 357.49L73.17 357.66L73.21 357.83L73.24 358.01L73.29 358.18L73.33 358.34L73.38 358.51L73.43 358.68L73.49 358.84L73.55 359.01L73.61 359.17L73.68 359.33L73.75 359.49L73.82 359.65L73.9 359.8L73.98 359.96L74.06 360.11L74.15 360.27L74.23 360.42L74.33 360.57L74.42 360.72L74.52 360.87L74.63 361.02L74.73 361.16L74.84 361.31L74.96 361.45L75.07 361.59L75.19 361.73L75.32 361.87L75.45 362.01L75.58 362.15L75.71 362.29L75.85 362.42L75.98 362.55L76.12 362.68L76.26 362.8L76.4 362.92L76.54 363.04L76.69 363.15L76.83 363.26L76.98 363.37L77.13 363.47L77.27 363.57L77.42 363.67L77.58 363.76L77.73 363.85L77.88 363.94L78.04 364.02L78.19 364.1L78.35 364.17L78.51 364.25L78.67 364.32L78.83 364.38L78.99 364.44L79.15 364.5L79.32 364.56L79.48 364.61L79.65 364.66L79.82 364.71L79.99 364.75L80.16 364.79L80.33 364.82L80.51 364.86L80.68 364.89L80.86 364.91L81.04 364.93L81.21 364.95L81.39 364.97L81.57 364.98L81.76 364.99L81.94 364.99L82.12 364.99L355.88 364.99L356.06 364.99L356.24 364.99L356.43 364.98L356.61 364.97L356.79 364.95L356.96 364.93L357.14 364.91L357.32 364.89L357.49 364.86L357.67 364.82L357.84 364.79L358.01 364.75L358.18 364.71L358.35 364.66L358.51 364.61L358.68 364.56L358.84 364.5L359.01 364.44L359.17 364.38L359.33 364.32L359.49 364.25L359.65 364.17L359.81 364.1L359.96 364.02L360.12 363.94L360.27 363.85L360.42 363.76L360.57 363.67L360.72 363.57L360.87 363.47L361.02 363.37L361.16 363.26L361.31 363.15L361.45 363.04L361.6 362.92L361.74 362.8L361.88 362.68L362.01 362.55L362.15 362.42L362.29 362.29L362.38 362.19L362.47 362.1L362.55 362L362.64 361.9L362.73 361.79L362.81 361.68L362.89 361.57L362.98 361.45L363.06 361.33L363.14 361.21L363.21 361.08L363.29 360.95L363.37 360.82L363.44 360.68L363.52 360.54L363.59 360.39L363.66 360.25L363.73 360.09L363.8 359.94L363.87 359.78L363.94 359.62L364 359.45L364.07 359.28L364.13 359.11L364.2 358.93L364.26 358.76L364.32 358.57L364.38 358.39L364.43 358.2L364.49 358L364.55 357.8L364.6 357.6L364.66 357.4L364.71 357.19L364.76 356.98L364.81 356.77L364.86 356.55L364.91 356.33L364.95 356.1L365 355.87L364.99 355.87L364.99 82.12L364.99 81.94L364.99 81.75L364.98 81.57L364.97 81.39L364.95 81.21L364.93 81.03L364.91 80.85L364.89 80.68L364.86 80.5L364.83 80.33L364.79 80.16L364.75 79.99L364.71 79.82L364.66 79.65L364.61 79.48L364.56 79.32L364.51 79.15L364.45 78.99L364.39 78.82L364.32 78.66L364.25 78.5L364.18 78.35L364.1 78.19L364.02 78.03L363.94 77.88L363.85 77.72L363.77 77.57L363.67 77.42L363.58 77.27L363.48 77.12L363.37 76.98L363.27 76.83L363.16 76.68L363.04 76.54L362.93 76.4L362.81 76.26L362.68 76.12L362.56 75.98L362.43 75.84L362.29 75.71L362.16 75.57L362.02 75.44L361.88 75.31L361.74 75.19L361.6 75.07L361.46 74.95L361.31 74.84L361.17 74.73L361.02 74.62L360.88 74.52L360.73 74.42L360.58 74.32L360.43 74.23L360.27 74.14L360.12 74.05L359.97 73.97L359.81 73.89L359.65 73.82L359.49 73.74L359.33 73.67L359.17 73.61L359.01 73.54L358.85 73.49L358.68 73.43L358.52 73.38L358.35 73.33L358.18 73.28L358.01 73.24L357.84 73.2L357.67 73.17L357.49 73.13L357.32 73.1L357.14 73.08L356.96 73.06L356.79 73.04L356.61 73.02L356.42 73.01L356.24 73L356.06 73L355.87 73L82.12 73L81.94 73Z" id="bk2aQfcre"></path><path d="M219 127.75C212.73 127.75 207.78 130.32 204.17 135.45C195.05 148.22 122.04 250.42 112.92 263.2C108.55 269.09 108.07 275.37 111.5 282.02C114.73 288.68 120.14 292 127.75 292C146 292 291.99 292 310.24 292C317.85 292 323.27 288.68 326.5 282.02C329.93 275.36 329.45 269.1 325.07 263.2C318.99 254.68 288.57 212.1 233.82 135.45C228.12 130.32 223.18 127.75 219 127.75Z" id="aWjCa17Uu"></path></defs><g><g><g><use xlink:href="#bk2aQfcre" opacity="1" fill="#8000ff" fill-opacity="1"></use><g><use xlink:href="#bk2aQfcre" opacity="1" fill-opacity="0" stroke="#000000" stroke-width="1" stroke-opacity="0"></use></g></g><g><use xlink:href="#aWjCa17Uu" opacity="1" fill="#8000ff" fill-opacity="1"></use><g><use xlink:href="#aWjCa17Uu" opacity="1" fill-opacity="0" stroke="#000000" stroke-width="1" stroke-opacity="0"></use></g></g></g></g></svg>