 <svg xmlns="http://www.w3.org/2000/svg" viewBox="0 0 700 420" preserveAspectRatio="xMidYMid meet" width="700pt" height="420pt" version="1.0">
<metadata>
Created by potrace 1.12, written by Peter Selinger 2001-2015
</metadata>
<g fill="#000000" stroke="none" transform="translate(0 420) scale(0.1 -0.1)">
<path d="M 1231 3473 c -14 -6 -60 -41 -101 -77 c -41 -36 -80 -66 -86 -66 c -6 0 -21 -12 -35 -26 c -13 -14 -47 -41 -74 -59 c -28 -19 -67 -49 -88 -67 l -38 -33 l 0 -1013 l 1 -1012 l 30 -33 c 16 -17 84 -89 151 -159 c 67 -70 127 -138 133 -150 l 12 -23 l 548 -3 l 548 -2 l 54 52 c 30 29 105 104 166 166 c 62 62 117 111 122 109 c 6 -2 10 -67 11 -163 l 0 -159 l 681 -3 l 680 -2 l 148 155 c 81 85 154 155 162 155 c 11 0 13 -28 12 -152 l -2 -153 l 564 -5 l 563 -5 l 183 181 l 184 181 l 0 436 l 0 435 l 72 64 c 39 35 94 84 122 109 c 28 25 94 83 146 128 c 52 46 139 122 192 169 l 97 86 l -1 108 c -1 60 -5 111 -10 114 c -8 5 -69 -45 -215 -176 c -101 -90 -175 -154 -234 -202 c -31 -25 -77 -66 -103 -91 c -29 -29 -52 -44 -62 -40 c -8 3 -13 12 -10 20 c 6 15 9 1203 3 1209 c -3 3 -1115 7 -1200 5 c -9 -1 -44 -26 -77 -56 c -33 -30 -65 -55 -72 -55 c -7 0 -35 24 -63 55 l -50 55 l -1519 3 c -1137 1 -1525 -1 -1545 -10 Z m 816 -66 c 4 -5 9 -270 10 -589 c 1 -319 4 -587 7 -595 c 4 -9 17 -13 38 -11 l 33 3 l 3 593 l 2 593 l 26 9 c 34 13 699 13 724 0 c 18 -10 19 -44 20 -938 c 0 -623 -3 -938 -10 -956 c -10 -28 -294 -311 -333 -333 c -16 -9 -145 -12 -503 -13 l -480 0 l -70 79 c -160 182 -180 205 -194 230 c -13 23 -15 150 -15 974 c 0 831 2 949 15 957 c 18 12 715 9 727 -3 Z m 2219 0 c 23 -13 254 -250 268 -275 c 14 -25 20 -232 7 -277 c -7 -25 -48 -87 -109 -163 c -53 -67 -104 -132 -113 -145 c -16 -22 -22 -22 -265 -27 l -249 -5 l -3 -30 c -6 -52 7 -55 273 -55 l 240 0 l 114 -114 l 114 -115 l 2 -353 c 1 -265 -2 -361 -11 -383 c -7 -16 -70 -90 -141 -163 l -128 -132 l -632 2 c -502 2 -635 6 -645 16 c -10 10 -14 227 -16 1113 l -2 1100 l 22 9 c 37 14 1248 12 1274 -3 Z m 1410 -2 c 18 -13 19 -38 22 -477 c 4 -531 -3 -741 -25 -763 c -27 -28 -43 -18 -43 28 c 0 25 -9 58 -23 82 c -19 33 -28 40 -53 39 c -24 -1 -35 6 -53 31 c -30 45 -68 51 -103 17 c -35 -32 -37 -83 -7 -149 c 27 -59 20 -103 -23 -137 c -35 -27 -48 -26 -48 5 c 0 10 -4 19 -10 19 c -5 0 -10 9 -10 21 c 0 31 -46 125 -65 133 c -46 17 -73 -2 -96 -66 c -11 -31 -11 -47 0 -89 c 8 -28 20 -63 27 -78 c 8 -14 14 -44 14 -65 c 0 -56 -30 -86 -86 -86 c -43 0 -114 -24 -114 -39 c 0 -14 -43 -21 -57 -9 c -7 6 -13 23 -13 39 c 0 16 -7 48 -17 71 c -36 95 -92 118 -177 75 c -28 -14 -57 -36 -64 -47 c -7 -11 -17 -18 -22 -15 c -16 10 -13 1462 3 1468 c 6 3 240 6 518 6 c 413 0 510 -3 525 -14 Z m -4446 -965 c 0 -777 2 -946 14 -973 c 7 -18 77 -105 155 -194 c 134 -153 145 -163 179 -164 c 20 -1 227 -2 459 -3 c 280 -1 426 -5 433 -12 c 7 -7 -29 -49 -120 -140 c -72 -71 -133 -131 -135 -133 c -8 -7 -918 -13 -981 -6 l -60 6 l -145 156 c -79 85 -148 161 -152 169 c -4 7 -8 451 -8 985 c 0 918 1 973 18 991 c 10 11 59 51 108 89 c 50 38 117 92 150 119 c 32 28 65 50 72 50 c 11 0 13 -176 13 -940 Z m 3310 881 c 0 -26 -3 -51 -7 -54 c -7 -8 -63 41 -63 55 c 0 14 52 58 61 52 c 5 -3 9 -27 9 -53 Z m 0 -811 c 0 -112 -4 -171 -11 -176 c -13 -8 -159 134 -159 154 c 0 20 150 203 161 197 c 5 -4 9 -82 9 -175 Z m 1805 121 c -6 -20 -24 -38 -167 -167 c -65 -59 -222 -197 -261 -229 c -7 -5 -55 -48 -107 -95 c -151 -136 -207 -180 -227 -180 c -24 0 -58 35 -72 73 l -11 28 l -70 -72 c -70 -72 -77 -89 -38 -89 c 35 0 119 -61 149 -109 c 25 -39 29 -55 29 -119 c 0 -76 -8 -101 -43 -139 c -43 -48 -97 -16 -147 87 c -42 86 -55 115 -76 175 c -9 28 -20 53 -24 58 c -4 4 -26 -16 -50 -44 c -37 -44 -42 -54 -32 -70 c 26 -42 4 -137 -41 -175 c -42 -35 -111 -34 -149 3 c -15 15 -28 35 -28 44 c 0 10 -4 21 -10 24 c -5 3 -10 30 -10 58 c 0 44 5 59 31 90 c 30 36 32 37 99 37 c 66 0 70 1 92 32 c 34 48 48 78 48 102 c 0 22 -31 110 -43 122 c -11 11 -8 132 3 139 c 21 13 38 -17 70 -118 c 18 -56 34 -108 36 -114 c 6 -21 22 -15 65 24 c 53 48 99 115 99 145 c 0 13 -11 46 -25 73 c -30 62 -31 86 -4 111 c 20 18 21 18 35 -1 c 8 -10 14 -31 14 -46 c 0 -39 22 -54 45 -29 c 26 29 45 25 45 -10 c 0 -20 -8 -35 -25 -46 c -28 -19 -32 -41 -10 -70 c 8 -10 15 -26 15 -34 c 0 -8 9 -26 19 -40 l 19 -24 l 40 34 c 21 19 74 64 117 100 c 42 36 134 115 204 175 c 69 61 142 124 162 140 c 20 17 78 65 129 108 c 90 77 121 88 105 38 Z m -1520 -661 c 11 -12 23 -54 32 -111 c 14 -84 13 -92 -3 -110 c -20 -22 -52 -25 -60 -5 c -3 7 -6 47 -7 87 c -2 65 -4 74 -21 74 c -10 0 -24 -9 -30 -20 c -6 -10 -21 -36 -33 -56 c -28 -48 -45 -112 -37 -144 c 7 -30 41 -50 104 -60 c 24 -4 51 -11 60 -16 c 8 -4 32 -16 53 -25 c 38 -17 67 -57 67 -92 c 0 -62 -98 -163 -401 -415 c -31 -26 -60 -54 -63 -62 c -7 -20 -25 -19 -48 2 c -31 28 -21 46 57 107 c 41 32 75 62 75 67 c 0 4 35 35 78 67 c 42 33 110 91 150 130 c 62 59 73 75 70 98 c -4 34 -27 47 -128 69 c -95 21 -106 27 -131 77 c -16 32 -20 52 -15 87 c 13 93 50 169 114 229 c 50 47 88 54 117 22 Z m 867 -370 c 8 -298 4 -403 -17 -420 c -19 -16 -809 -10 -825 6 c -7 7 2 23 33 55 c 74 77 125 151 129 189 c 2 26 7 34 18 31 c 8 -3 38 -7 65 -9 c 40 -3 57 1 85 20 c 47 32 79 93 86 167 c 4 34 11 60 16 59 c 10 -4 37 -51 78 -137 c 35 -72 87 -130 125 -137 c 85 -16 145 66 145 197 c 0 78 -40 206 -70 224 c -22 14 -7 24 38 28 c 97 8 86 38 94 -273 Z m -1039 -104 c 12 -8 38 -17 57 -21 c 66 -14 76 -39 33 -80 c -35 -33 -103 -78 -110 -72 c -7 8 -16 187 -9 187 c 4 0 17 -6 29 -14 Z m -1749 -162 c 3 -26 6 -87 6 -135 l 0 -89 l 43 -1 c 23 0 245 0 492 1 c 507 1 725 -6 725 -25 c 0 -12 -100 -116 -214 -224 l -58 -54 l -616 7 c -339 4 -618 9 -621 12 c -3 2 -5 79 -6 169 l 0 165 l 112 110 c 62 61 116 110 121 110 c 5 0 12 -21 16 -46 Z m 1638 -46 l 4 -53 l -65 -67 c -37 -38 -74 -70 -83 -74 c -37 -12 -33 -51 11 -109 c 22 -30 41 -59 41 -64 c 0 -38 58 0 180 116 c 30 28 66 56 80 60 c 42 15 907 10 922 -5 c 10 -10 -14 -39 -117 -142 l -130 -130 l -518 -3 c -360 -3 -520 -1 -524 7 c -4 5 -6 78 -5 160 c 2 146 3 151 30 185 c 34 46 154 171 163 171 c 4 0 9 -24 11 -52 Z" />
<path d="M 3804 2955 c -4 -8 -3 -26 0 -40 l 6 -25 l 173 2 l 172 3 l 0 35 l 0 35 l -173 3 c -147 2 -173 0 -178 -13 Z" />
<path d="M 3815 1816 c -16 -12 -18 -19 -9 -43 l 10 -28 l 159 -1 c 90 -1 166 3 173 9 c 15 12 16 49 0 65 c -18 18 -308 17 -333 -2 Z" />
<path d="M 5350 1836 c 0 -8 7 -27 15 -43 c 8 -15 35 -72 60 -125 c 25 -54 50 -98 55 -98 c 18 0 30 39 30 99 c 0 33 -4 63 -10 66 c -5 3 -10 14 -10 25 c 0 11 -21 32 -54 54 c -57 38 -86 45 -86 22 Z" />
<path d="M 5041 1746 c -24 -29 -24 -79 1 -115 c 31 -47 43 -48 78 -11 c 49 53 38 120 -20 120 c -14 0 -31 5 -36 10 c -8 8 -15 6 -23 -4 Z" />
</g>
</svg>