<?xml version="1.0" encoding="UTF-8" standalone="no"?>
<svg
   xmlns:dc="http://purl.org/dc/elements/1.1/"
   xmlns:cc="http://creativecommons.org/ns#"
   xmlns:rdf="http://www.w3.org/1999/02/22-rdf-syntax-ns#"
   xmlns:svg="http://www.w3.org/2000/svg"
   xmlns="http://www.w3.org/2000/svg"
   xmlns:sodipodi="http://sodipodi.sourceforge.net/DTD/sodipodi-0.dtd"
   xmlns:inkscape="http://www.inkscape.org/namespaces/inkscape"
   version="1.1"
   id="Layer_1"
   x="0px"
   y="0px"
   width="1000"
   height="999.99701"
   viewBox="0 0 1000 999.99702"
   enable-background="new 0 0 612 792"
   xml:space="preserve"
   inkscape:version="0.92.2 (5c3e80d, 2017-08-06)"
   sodipodi:docname="Ubisoft 2003 (Print) (Symbol).svg"><sodipodi:namedview
     pagecolor="#ffffff"
     bordercolor="#666666"
     borderopacity="1"
     objecttolerance="10"
     gridtolerance="10"
     guidetolerance="10"
     inkscape:pageopacity="0"
     inkscape:pageshadow="2"
     inkscape:window-width="1360"
     inkscape:window-height="706"
     id="namedview57"
     showgrid="false"
     inkscape:zoom="0.35355339"
     inkscape:cx="280.44353"
     inkscape:cy="482.70237"
     inkscape:window-x="-8"
     inkscape:window-y="-8"
     inkscape:window-maximized="1"
     inkscape:current-layer="Layer_1" /><metadata
     id="metadata103"><rdf:RDF><cc:Work
         rdf:about=""><dc:format>image/svg+xml</dc:format><dc:type
           rdf:resource="http://purl.org/dc/dcmitype/StillImage" /><dc:title></dc:title></cc:Work></rdf:RDF></metadata><defs
     id="defs101"><radialGradient
       id="SVGID_4_"
       cx="272.02591"
       cy="166.35941"
       r="183.2394"
       gradientUnits="userSpaceOnUse"><stop
         offset="0.2247"
         style="stop-color:#FFFFFF"
         id="stop37" /><stop
         offset="0.5225"
         style="stop-color:#B2CFEC"
         id="stop39" /><stop
         offset="0.7833"
         style="stop-color:#5777B9"
         id="stop41" /><stop
         offset="1"
         style="stop-color:#120840"
         id="stop43" /></radialGradient><radialGradient
       id="SVGID_5_"
       cx="505.9873"
       cy="330.75629"
       r="412.80569"
       gradientUnits="userSpaceOnUse"><stop
         offset="0.2247"
         style="stop-color:#FFFFFF"
         id="stop48" /><stop
         offset="0.5225"
         style="stop-color:#B2CFEC"
         id="stop50" /><stop
         offset="0.7921"
         style="stop-color:#5777B9"
         id="stop52" /><stop
         offset="1"
         style="stop-color:#3B3776"
         id="stop54" /></radialGradient><radialGradient
       id="SVGID_6_"
       cx="68.642601"
       cy="-18.9795"
       r="208.8779"
       gradientUnits="userSpaceOnUse"><stop
         offset="0"
         style="stop-color:#E3ECF7"
         id="stop59" /><stop
         offset="0.6667"
         style="stop-color:#495896"
         id="stop61" /><stop
         offset="1"
         style="stop-color:#5777B9"
         id="stop63" /></radialGradient></defs><path
     d="M 500.00171,2.6632812e-4 C 223.95387,2.6632812e-4 0,223.96086 0,500.00536 0,776.09023 223.95387,999.997 500.00171,999.997 776.0665,999.997 1000,776.08687 1000,500.00536 1000,223.96422 776.0665,2.6632812e-4 500.00171,2.6632812e-4 Z M 510.69291,916.91225 C 194.74218,918.57025 167.97545,640.222 167.97545,640.222 150.32606,491.75911 256.44451,357.05451 404.90406,339.42193 507.71324,327.17362 603.86691,374.30706 659.2096,453.69918 615.58716,409.38058 552.68424,384.91086 486.17277,392.8107 372.0233,406.40427 290.52928,509.89951 304.07907,624.05236 317.64575,738.19849 420.71389,815.25996 535.29383,806.14267 649.36254,797.06236 751.32425,687.70192 728.68749,523.15678 707.12333,366.40722 575.38847,261.40533 417.11874,261.40533 c -174.70162,0 -316.34086,142.37911 -316.34086,317.98875 0,23.3263 2.46849,46.06405 7.21713,67.95426 l 2.825,10.98046 C 52.837245,520.36204 70.75234,355.79336 171.7253,231.52441 317.62554,51.959766 581.70758,24.950906 761.24195,170.8209 l -0.0545,-0.074 c 99.18391,75.8676 164.61915,196.51457 164.61915,331.03081 0,229.29773 -181.67658,413.89688 -415.1143,415.1345 z M 472.06132,670.50381 c 34.1038,1.47871 64.92946,-26.4103 66.11342,-53.63606 1.18391,-27.2258 -4.87681,-44.83945 -21.84353,-59.19977 29.77668,17.61243 39.87782,38.73226 41.26197,74.43222 1.38416,35.69998 -39.36561,83.10073 -83.55343,81.01275 -44.18786,-2.08795 -77.90096,-29.33994 -83.33671,-71.34594 -5.43581,-42.00604 14.44747,-72.83761 45.65347,-87.85037 -18.15049,12.86044 -24.5856,33.61734 -25.5912,57.60945 0,27.50311 27.19219,57.49908 61.29601,58.97772 z m 109.55067,30.10097 C 617.05742,648.32893 613.83575,576.09082 559.08488,531.63096 504.32735,487.11731 431.45564,497.19731 386.96218,551.94143 361.02617,583.82 354.9977,618.963 363.67102,656.1115 349.69221,618.60836 338.86351,556.84321 383.2015,496.40309 c 44.33802,-60.44007 159.79607,-85.08812 231.84093,-22.29321 72.04482,62.79493 63.67715,163.90705 21.25875,216.10403 -42.41858,52.19701 -96.11568,69.65939 -154.36078,58.30562 38.09692,0.89124 73.75921,-16.03279 99.67159,-47.91475 z"
     id="path45"
     style="fill:#000000;fill-opacity:1;stroke-width:3.3568089"
     inkscape:connector-curvature="0"
     sodipodi:nodetypes="ssssscccccccsssccsccccczzczzzcczcccczzzcc" /></svg>